<?xml version="1.0" encoding="utf-8"?><svg xmlns="http://www.w3.org/2000/svg" xmlns:xlink="http://www.w3.org/1999/xlink" width="1920" height="951" preserveAspectRatio="xMidYMid" viewBox="0 0 1920 951" style="z-index:1;margin-right:-2px;display:block;background-color:rgb(119, 0, 70);animation-play-state:paused" ><g transform="translate(960,475.5) scale(1,1) translate(-960,-475.5)" style="transform:matrix(1, 0, 0, 1, 0, 0);animation-play-state:paused" ><linearGradient id="ldb-nv66i3zmmec-lg" x1="0" x2="0" y1="1" y2="0" style="animation-play-state:paused" ><stop stop-color="#e48d85" offset="0" style="animation-play-state:paused" ></stop>

  
<stop stop-color="#a23c33" offset="1" style="animation-play-state:paused" ></stop></linearGradient>
<g transform="translate(1551.7541704518062 461.4583758730064)" style="transform:matrix(1, 0, 0, 1, 1551.75, 461.458);animation-play-state:paused" ><circle cx="0" cy="0" r="806.4" fill="url(#ldb-nv66i3zmmec-lg)" fill-opacity="0.4" transform="matrix(0.9950000047683716,0,0,0.9950000047683716,0,0)" style="transform:matrix(0.995, 0, 0, 0.995, 0, 0);animation-play-state:paused" ></circle></g>
<g transform="translate(1346.7826188562644 287.5068155959025)" style="transform:matrix(1, 0, 0, 1, 1346.78, 287.507);animation-play-state:paused" ><circle cx="0" cy="0" r="806.4" fill="url(#ldb-nv66i3zmmec-lg)" fill-opacity="0.4" transform="matrix(0.9985862970352173,0,0,0.9985862970352173,0,0)" style="transform:matrix(0.998586, 0, 0, 0.998586, 0, 0);animation-play-state:paused" ></circle></g>
<g transform="translate(1094.417709293012 194.85459108157033)" style="transform:matrix(1, 0, 0, 1, 1094.42, 194.855);animation-play-state:paused" ><circle cx="0" cy="0" r="806.4" fill="url(#ldb-nv66i3zmmec-lg)" fill-opacity="0.4" transform="matrix(1.0038659572601318,0,0,1.0038659572601318,0,0)" style="transform:matrix(1.00387, 0, 0, 1.00387, 0, 0);animation-play-state:paused" ></circle></g>
<g transform="translate(825.582290706988 194.85459108157022)" style="transform:matrix(1, 0, 0, 1, 825.582, 194.855);animation-play-state:paused" ><circle cx="0" cy="0" r="806.4" fill="url(#ldb-nv66i3zmmec-lg)" fill-opacity="0.4" transform="matrix(1.0038659572601318,0,0,1.0038659572601318,0,0)" style="transform:matrix(1.00387, 0, 0, 1.00387, 0, 0);animation-play-state:paused" ></circle></g>
<g transform="translate(573.2173811437357 287.5068155959025)" style="transform:matrix(1, 0, 0, 1, 573.217, 287.507);animation-play-state:paused" ><circle cx="0" cy="0" r="806.4" fill="url(#ldb-nv66i3zmmec-lg)" fill-opacity="0.4" transform="matrix(0.9985862970352173,0,0,0.9985862970352173,0,0)" style="transform:matrix(0.998586, 0, 0, 0.998586, 0, 0);animation-play-state:paused" ></circle></g>
<g transform="translate(368.2458295481938 461.45837587300645)" style="transform:matrix(1, 0, 0, 1, 368.246, 461.458);animation-play-state:paused" ><circle cx="0" cy="0" r="806.4" fill="url(#ldb-nv66i3zmmec-lg)" fill-opacity="0.4" transform="matrix(0.9950000047683716,0,0,0.9950000047683716,0,0)" style="transform:matrix(0.995, 0, 0, 0.995, 0, 0);animation-play-state:paused" ></circle></g></g></svg>